<mxfile host="app.diagrams.net" modified="2022-02-04T05:31:53.122Z" agent="5.0 (X11; Linux x86_64) AppleWebKit/537.36 (KHTML, like Gecko) Chrome/98.0.4758.80 Safari/537.36" etag="06nGsyBAiQeuJoYwVYRt" version="16.5.3" type="github">
  <diagram id="EC5MgGwQo2bULW8xyrQx" name="Page-1">
    <mxGraphModel dx="814" dy="488" grid="1" gridSize="10" guides="1" tooltips="1" connect="1" arrows="1" fold="1" page="1" pageScale="1" pageWidth="827" pageHeight="1169" math="0" shadow="0">
      <root>
        <mxCell id="0" />
        <mxCell id="1" parent="0" />
        <mxCell id="9uutMeVtb-zLTkyFQTrJ-1" value="&lt;b&gt;&lt;font style=&quot;font-size: 20px&quot;&gt;STM32F4&lt;/font&gt;&lt;/b&gt;" style="whiteSpace=wrap;html=1;aspect=fixed;" vertex="1" parent="1">
          <mxGeometry x="370" y="210" width="100" height="100" as="geometry" />
        </mxCell>
        <mxCell id="9uutMeVtb-zLTkyFQTrJ-3" value="IMU Sensor" style="rounded=1;whiteSpace=wrap;html=1;fontSize=12;" vertex="1" parent="1">
          <mxGeometry x="560" y="170" width="90" height="30" as="geometry" />
        </mxCell>
        <mxCell id="9uutMeVtb-zLTkyFQTrJ-4" value="Throttle&amp;nbsp;Sensor" style="rounded=1;whiteSpace=wrap;html=1;fontSize=12;" vertex="1" parent="1">
          <mxGeometry x="560" y="220" width="90" height="30" as="geometry" />
        </mxCell>
        <mxCell id="9uutMeVtb-zLTkyFQTrJ-5" value="Brake Sensor" style="rounded=1;whiteSpace=wrap;html=1;fontSize=12;" vertex="1" parent="1">
          <mxGeometry x="560" y="270" width="90" height="30" as="geometry" />
        </mxCell>
        <mxCell id="9uutMeVtb-zLTkyFQTrJ-6" value="Load Sensor" style="rounded=1;whiteSpace=wrap;html=1;fontSize=12;" vertex="1" parent="1">
          <mxGeometry x="560" y="320" width="90" height="30" as="geometry" />
        </mxCell>
      </root>
    </mxGraphModel>
  </diagram>
</mxfile>
